<?xml version="1.0" standalone="no"?>
<!DOCTYPE svg PUBLIC "-//W3C//DTD SVG 20010904//EN"
 "http://www.w3.org/TR/2001/REC-SVG-20010904/DTD/svg10.dtd">
<svg version="1.0" xmlns="http://www.w3.org/2000/svg"
 width="181.000000pt" height="206.000000pt" viewBox="0 0 181.000000 206.000000"
 preserveAspectRatio="xMidYMid meet">

<g transform="translate(0.000000,206.000000) scale(0.100000,-0.100000)"
fill="#000000" stroke="none">
<path d="M743 1876 c-199 -38 -353 -123 -490 -270 -119 -127 -187 -263 -224
-444 -24 -119 -24 -190 1 -312 58 -284 224 -504 473 -630 43 -22 93 -42 113
-46 55 -10 64 5 64 107 l0 88 -85 0 c-123 -2 -167 22 -217 117 -21 38 -58 87
-83 110 -55 49 -57 64 -7 64 50 0 93 -28 139 -90 45 -61 95 -90 157 -90 69 0
93 13 106 58 5 22 17 45 25 52 25 20 18 26 -50 39 -218 44 -325 179 -325 413
0 96 19 164 63 221 17 23 22 38 16 52 -21 54 -3 200 27 212 21 8 141 -33 188
-64 39 -25 41 -25 110 -12 88 16 232 16 310 -1 l59 -12 81 41 c44 22 100 43
123 47 40 6 43 5 54 -22 16 -43 22 -134 12 -174 -9 -31 -6 -40 20 -79 40 -59
57 -120 57 -207 0 -232 -107 -370 -322 -414 -35 -7 -64 -14 -66 -15 -2 -1 7
-20 20 -41 21 -36 23 -55 28 -213 6 -206 6 -207 96 -176 130 44 308 183 400
311 57 79 108 189 136 289 31 116 31 326 -1 444 -82 304 -326 551 -628 631
-101 27 -281 35 -380 16z"/>
</g>
</svg>
