<?xml version="1.0" standalone="no"?>
<!DOCTYPE svg PUBLIC "-//W3C//DTD SVG 20010904//EN"
 "http://www.w3.org/TR/2001/REC-SVG-20010904/DTD/svg10.dtd">
<svg version="1.0" xmlns="http://www.w3.org/2000/svg"
 width="390.000000pt" height="390.000000pt" viewBox="0 0 390.000000 390.000000"
 preserveAspectRatio="xMidYMid meet">

<g transform="translate(0.000000,390.000000) scale(0.100000,-0.100000)"
fill="#000000" stroke="none">
<path d="M1795 3890 c-789 -69 -1490 -642 -1709 -1397 -87 -300 -103 -533 -60
-833 61 -420 244 -789 539 -1086 103 -103 203 -184 338 -272 213 -139 567
-266 819 -293 134 -15 487 -6 588 15 476 99 904 358 1181 716 102 132 155 218
230 377 66 138 102 248 140 433 69 335 46 708 -65 1025 -109 315 -278 570
-527 802 -283 263 -635 433 -1024 497 -117 19 -324 26 -450 16z m315 -250
c278 -29 515 -110 740 -254 106 -67 280 -209 280 -228 0 -10 -182 -3 -222 8
-9 3 -26 24 -37 48 -32 65 -71 95 -161 126 l-82 28 4 -53 c2 -28 14 -71 26
-93 l22 -42 -39 0 c-45 0 -51 9 -51 78 0 53 -26 117 -59 146 -26 23 -155 67
-159 55 -2 -5 2 -35 8 -66 10 -48 20 -66 56 -100 24 -23 46 -54 50 -69 7 -26
6 -26 -34 -19 -33 5 -44 3 -61 -14 -12 -12 -21 -30 -21 -41 0 -22 11 -25 104
-35 33 -3 62 -8 65 -10 10 -11 -38 -62 -87 -91 -28 -17 -72 -49 -98 -71 l-48
-41 57 -18 c50 -15 64 -16 105 -5 72 19 112 57 147 139 28 68 32 72 63 72 17
0 32 -2 32 -4 0 -3 -9 -20 -19 -38 -11 -18 -24 -52 -29 -76 -9 -38 -8 -42 6
-38 10 3 42 10 72 16 63 12 126 51 155 97 11 18 26 30 35 28 8 -2 79 -7 156
-10 l142 -7 73 -94 c176 -223 314 -563 338 -829 5 -55 7 -102 5 -104 -2 -2
-17 -5 -34 -6 -42 -4 -70 -31 -70 -70 0 -41 29 -67 75 -67 l35 0 -4 -46 c-3
-26 -8 -78 -11 -117 -15 -172 -71 -357 -167 -550 -56 -110 -174 -295 -199
-311 -12 -7 -99 -12 -99 -6 0 2 9 15 20 29 41 52 11 145 -50 158 -79 17 -140
-24 -140 -96 0 -49 16 -83 46 -100 13 -7 24 -16 24 -21 0 -17 -28 -6 -79 32
-133 100 -348 200 -591 275 l-105 33 -3 96 -3 96 42 52 c45 57 98 157 137 258
19 48 26 87 27 150 1 47 10 114 20 150 22 82 16 187 -15 252 -12 25 -41 64
-66 86 -25 24 -44 50 -44 62 0 66 -79 147 -195 201 -61 29 -81 33 -174 37 -72
3 -133 -1 -190 -12 -150 -29 -236 -15 -301 49 l-38 37 -25 -34 c-48 -64 -61
-100 -61 -173 -1 -56 5 -82 26 -127 l27 -58 -22 -47 c-28 -64 -29 -210 0 -298
15 -45 17 -68 10 -95 -20 -80 63 -306 161 -433 l52 -68 0 -84 c0 -56 -4 -86
-12 -92 -7 -4 -76 -28 -153 -54 -77 -26 -173 -60 -213 -77 -105 -44 -275 -140
-343 -195 -32 -26 -62 -47 -67 -47 -4 0 -18 9 -32 20 l-25 20 35 0 c20 0 45 7
56 15 51 35 55 125 8 172 -23 23 -24 29 -24 162 l0 138 63 5 c192 16 297 151
297 385 0 57 -2 63 -21 63 -47 0 -167 -24 -214 -42 -59 -23 -146 -88 -165
-122 l-13 -25 -46 48 c-81 84 -167 120 -320 136 l-64 7 6 -103 c6 -127 25
-184 83 -248 52 -58 121 -90 213 -99 l66 -7 3 -138 c2 -125 1 -142 -18 -172
-31 -50 -27 -110 10 -147 19 -19 24 -28 13 -24 -10 4 -46 10 -81 13 -59 6 -65
9 -96 47 -91 111 -209 331 -265 490 -36 103 -81 342 -81 432 l0 61 30 0 c40 0
70 28 70 68 0 40 -30 68 -71 68 l-32 0 7 81 c10 122 49 299 91 411 74 199 274
519 335 535 14 4 93 10 177 13 143 6 152 6 158 -12 15 -49 98 -103 175 -116
25 -4 51 -12 58 -17 30 -25 1 104 -32 141 -16 17 -16 19 -1 25 28 10 65 7 65
-6 0 -22 50 -122 73 -146 43 -47 94 -65 169 -60 37 3 74 11 82 18 13 10 9 17
-27 45 -23 19 -65 47 -93 63 -47 28 -112 97 -101 108 3 3 39 8 81 11 85 7 104
19 85 55 -18 34 -30 39 -76 33 -24 -4 -43 -4 -43 -2 0 24 26 65 51 79 32 19
62 76 73 141 7 37 7 38 -21 31 -96 -21 -110 -28 -150 -70 -39 -40 -43 -49 -44
-97 -2 -86 -9 -101 -54 -108 -22 -4 -41 -6 -43 -4 -2 1 6 18 18 37 16 28 44
128 37 134 -6 5 -128 -26 -152 -39 -37 -19 -77 -61 -102 -107 -18 -32 -25 -36
-79 -43 -32 -4 -92 -6 -132 -5 l-73 3 88 75 c109 94 280 206 397 260 153 73
413 140 586 153 96 7 179 6 270 -3z m-93 -1554 c35 -15 47 -28 78 -86 19 -38
47 -83 61 -99 34 -41 105 -78 176 -93 l60 -12 -6 -41 c-18 -122 -164 -328
-277 -390 -48 -27 -63 -30 -139 -30 -80 0 -90 2 -144 35 -109 66 -212 206
-261 356 l-16 51 30 31 c29 28 31 35 31 104 0 172 36 201 245 195 86 -2 132
-8 162 -21z m-1382 -466 c18 -11 46 -35 62 -53 29 -33 70 -114 62 -122 -12
-12 -84 20 -121 53 -39 35 -98 125 -98 149 0 15 49 2 95 -27z m460 -33 c-39
-84 -121 -147 -192 -147 -15 0 15 75 49 120 35 48 157 114 166 90 2 -5 -8 -33
-23 -63z m747 -338 c81 -32 145 -34 232 -9 42 13 79 27 82 32 15 24 22 -3 28
-110 3 -64 11 -134 17 -155 8 -32 7 -42 -8 -63 -27 -36 -215 -195 -228 -191
-15 5 -187 157 -213 189 -21 25 -22 31 -12 65 6 21 14 91 17 156 5 103 8 117
22 111 9 -4 37 -15 63 -25z m-283 -251 c23 -39 199 -214 289 -289 34 -29 62
-56 62 -61 0 -5 -29 -43 -65 -85 -76 -89 -79 -78 48 -175 l78 -60 73 56 c40
31 82 67 94 79 l21 23 -70 83 c-39 45 -69 84 -67 85 123 101 304 274 354 339
l29 38 75 -26 c125 -44 390 -181 448 -231 49 -43 113 -123 112 -141 -1 -12
-100 -86 -106 -80 -3 3 -2 26 4 51 8 40 7 47 -12 64 -32 30 -162 111 -220 136
-118 54 -147 66 -156 66 -5 0 -26 -33 -46 -72 -69 -137 -144 -240 -263 -358
-129 -128 -248 -215 -281 -205 -38 12 -178 123 -272 217 -96 96 -193 229 -254
350 -19 37 -39 68 -44 68 -24 0 -247 -114 -316 -161 l-76 -53 6 -58 c4 -32 3
-58 -1 -58 -4 0 -30 20 -58 44 l-50 43 20 38 c24 45 112 126 180 166 128 75
392 196 432 198 6 1 20 -14 32 -31z m431 -522 l-20 -20 -22 21 c-21 22 -21 23
-3 43 l18 20 24 -22 23 -22 -20 -20z"/>
<path d="M1885 3422 c-65 -22 -105 -51 -138 -99 -79 -114 -35 -290 88 -353 42
-21 63 -25 141 -25 83 0 94 2 140 30 88 55 134 165 89 215 -15 17 -30 20 -97
20 l-78 0 0 -40 0 -40 50 0 c28 0 50 -4 50 -8 0 -14 -64 -69 -88 -77 -39 -12
-119 -7 -149 9 -85 44 -118 138 -71 205 33 49 69 72 121 78 67 8 113 -4 153
-39 l35 -31 31 30 c26 26 28 33 18 50 -29 46 -135 93 -209 93 -20 -1 -59 -8
-86 -18z"/>
<path d="M2122 2928 c-20 -20 -15 -76 7 -88 45 -24 91 2 91 51 0 33 -18 49
-55 49 -17 0 -36 -5 -43 -12z"/>
<path d="M1752 2898 c-21 -21 -15 -76 12 -93 49 -32 103 24 77 81 -8 18 -18
24 -44 24 -18 0 -38 -5 -45 -12z"/>
<path d="M714 2781 c-203 -124 -263 -165 -257 -175 5 -7 13 -275 13 -414 0
-21 4 -23 43 -20 l42 3 3 83 3 82 79 0 80 0 0 -85 0 -85 45 0 45 0 0 85 0 85
80 0 80 0 0 -85 0 -85 45 0 44 0 3 83 3 82 48 3 47 3 0 39 0 39 -47 3 -48 3
-3 58 -3 57 -44 0 -45 0 0 -60 0 -60 -80 0 -80 0 0 60 0 60 -45 0 -44 0 -3
-57 -3 -58 -77 -3 -78 -3 0 61 c0 47 -3 60 -15 60 -42 0 10 37 243 173 l64 37
177 -100 c169 -95 176 -98 179 -75 2 13 10 29 18 35 22 19 18 26 -33 56 -27
15 -111 65 -189 110 -77 46 -145 84 -150 84 -6 0 -68 -36 -140 -79z"/>
<path d="M1947 2832 c-32 -35 -10 -102 34 -102 28 0 59 31 59 59 0 53 -60 80
-93 43z"/>
<path d="M2865 2840 c-90 -13 -162 -39 -195 -70 l-33 -31 6 -97 c6 -114 36
-206 93 -289 20 -29 35 -55 33 -57 -2 -1 -19 -8 -36 -15 -74 -30 -21 -70 119
-92 86 -14 342 -6 406 12 25 7 50 22 59 35 9 14 35 29 67 38 29 9 64 25 79 36
48 38 58 128 17 150 -24 13 -26 13 -44 -6 -9 -8 -16 -28 -16 -43 0 -16 -6 -33
-13 -39 -15 -13 -97 -28 -97 -18 0 4 11 23 24 44 37 56 67 156 73 246 5 78 4
83 -21 113 -32 38 -103 66 -203 82 -79 12 -239 13 -318 1z m314 -90 c23 -12
-140 -23 -230 -15 -150 13 -45 36 126 28 50 -3 96 -9 104 -13z m-372 -76 c92
-21 332 -21 433 0 41 9 77 16 79 16 10 0 -12 -137 -29 -182 -26 -68 -85 -152
-129 -182 -63 -44 -195 -60 -249 -32 -69 36 -138 141 -167 253 -14 53 -21 143
-11 143 3 0 35 -7 73 -16z"/>
<path d="M482 2138 c-34 -34 2 -98 48 -83 24 7 37 51 23 74 -13 20 -54 26 -71
9z"/>
<path d="M986 2134 c-23 -23 -20 -51 9 -70 23 -15 27 -15 50 0 27 18 33 54 13
74 -17 17 -54 15 -72 -4z"/>
<path d="M2998 1915 c-43 -25 -80 -45 -84 -45 -3 0 -46 -23 -95 -51 l-89 -51
0 -194 0 -193 98 -54 c53 -30 132 -72 174 -93 l77 -38 38 18 c21 10 100 51
176 93 l137 75 -2 200 -3 201 -104 53 c-57 30 -132 69 -166 89 -35 19 -67 35
-72 35 -5 0 -43 -20 -85 -45z m72 -200 l0 -106 73 39 c39 21 86 47 103 57 27
16 36 17 58 7 26 -11 26 -12 26 -127 0 -73 -4 -115 -10 -115 -10 0 -60 29 -70
40 -14 16 -80 50 -96 50 -11 0 -34 -9 -51 -20 l-33 -20 0 -90 c0 -81 -8 -107
-25 -81 -8 14 -123 74 -173 90 -23 8 -42 18 -42 22 0 5 33 27 73 50 117 68
148 89 143 98 -3 5 -44 27 -92 50 -47 23 -83 45 -80 49 10 9 180 110 189 111
4 1 7 -46 7 -104z"/>
<path d="M769 1891 c-17 -18 -29 -40 -29 -56 0 -37 50 -85 89 -85 39 0 79 36
87 77 5 27 1 37 -24 63 -41 40 -83 41 -123 1z"/>
</g>
</svg>
